<svg xmlns="http://www.w3.org/2000/svg" width="512" height="512" viewBox="0 0 512 512">
  <defs>
    <linearGradient id="g" x1="0" y1="0" x2="1" y2="1">
      <stop offset="0" stop-color="#0d9488"/>
      <stop offset="1" stop-color="#115e59"/>
    </linearGradient>
  </defs>
  <rect width="512" height="512" rx="112" fill="url(#g)"/>
  <path fill="#ffffff" d="M256 120c10 60 36 86 96 96-60 10-86 36-96 96-10-60-36-86-96-96 60-10 86-36 96-96z"/>
  <path fill="#5eead4" d="M372 300c5 30 18 43 48 48-30 5-43 18-48 48-5-30-18-43-48-48 30-5 43-18 48-48z"/>
</svg>
